# xmcd
#
# Track frame offsets:
#	150
#	12378
#	26822
#	42520
#	65364
#	83767
#	99620
#	119365
#	137013
#	156363
#	169257
#	183774
#	196731
#	211029
#	229201
#	243938
#	256558
#
# Disc length: 4356 seconds
#
# Revision: 1
# Processed by: cddbd v1.5.1PL2 Copyright (c) Steve Scherf et al.
# Submitted via: audiograbber 1.83.01
#
DISCID=dc110211
DTITLE=Various Artist - Blues Route on Tour '98
DYEAR=1998
DGENRE=Blues
TTITLE0=Ronald Abrams - BluesRoute Opstelten
TTITLE1=Millstreet Bluesband - She moves me
TTITLE2=Jan Akkerman - Ellington's Blues Roots
TTITLE3=JR Band - C Shuffle
TTITLE4=BIG BAM BOOM BAND - Karen
TTITLE5=Leoff Berchmaker Bluesband - Anything it takes
TTITLE6=Wicked Willy Bluesband - Group thing
TTITLE7=Big Bo and Mr. Bas - Rollin' and Tumblin'
TTITLE8=Robert Smith Bluesband - Nervous Fellow
TTITLE9=Mc Anthony 's Bluesgang - Corina Corina
TTITLE10=Sugar Mama - Highway 51
TTITLE11=Mission Bluesband - Out of my mind
TTITLE12=Brother Fake - Somewhere, Somehow, Someway
TTITLE13=Blues Preachers - Automobile
TTITLE14=Bumnotes - You got the bucks
TTITLE15=Bluesfactory - Too much tequila
TTITLE16=Atsinganos and JAK - So what blues
EXTD=
EXTT0=
EXTT1=
EXTT2=
EXTT3=
EXTT4=
EXTT5=
EXTT6=
EXTT7=
EXTT8=
EXTT9=
EXTT10=
EXTT11=
EXTT12=
EXTT13=
EXTT14=
EXTT15=
EXTT16=
PLAYORDER=
